<svg width="4295" height="2323" xmlns="http://www.w3.org/2000/svg" xmlns:xlink="http://www.w3.org/1999/xlink" overflow="hidden"><defs><clipPath id="clip0"><rect x="22" y="32" width="4295" height="2323"/></clipPath></defs><g clip-path="url(#clip0)" transform="translate(-22 -32)"><path d="M1797 1873.5C1797 1858.31 1809.31 1846 1824.5 1846L2210.5 1846C2225.69 1846 2238 1858.31 2238 1873.5L2238 1983.5C2238 1998.69 2225.69 2011 2210.5 2011L1824.5 2011C1809.31 2011 1797 1998.69 1797 1983.5Z" fill="#484AE8" fill-rule="evenodd" fill-opacity="0.709804"/><path d="M2283 1873.5C2283 1858.31 2295.31 1846 2310.5 1846L2696.5 1846C2711.69 1846 2724 1858.31 2724 1873.5L2724 1983.5C2724 1998.69 2711.69 2011 2696.5 2011L2310.5 2011C2295.31 2011 2283 1998.69 2283 1983.5Z" fill="#484AE8" fill-rule="evenodd" fill-opacity="0.25098"/><path d="M1273 1539.5C1273 1524.31 1285.31 1512 1300.5 1512L1685.5 1512C1700.69 1512 1713 1524.31 1713 1539.5L1713 1649.5C1713 1664.69 1700.69 1677 1685.5 1677L1300.5 1677C1285.31 1677 1273 1664.69 1273 1649.5Z" fill="#F75459" fill-rule="evenodd" fill-opacity="1"/><path d="M1750 1539.5C1750 1524.31 1762.31 1512 1777.5 1512L2163.5 1512C2178.69 1512 2191 1524.31 2191 1539.5L2191 1649.5C2191 1664.69 2178.69 1677 2163.5 1677L1777.5 1677C1762.31 1677 1750 1664.69 1750 1649.5Z" fill="#F75459" fill-rule="evenodd" fill-opacity="0.290196"/><path d="M2786 1539.5C2786 1524.31 2798.31 1512 2813.5 1512L3199.5 1512C3214.69 1512 3227 1524.31 3227 1539.5L3227 1649.5C3227 1664.69 3214.69 1677 3199.5 1677L2813.5 1677C2798.31 1677 2786 1664.69 2786 1649.5Z" fill="#F75459" fill-rule="evenodd" fill-opacity="0.290196"/><path d="M2300 1539.5C2300 1524.31 2312.31 1512 2327.5 1512L2713.5 1512C2728.69 1512 2741 1524.31 2741 1539.5L2741 1649.5C2741 1664.69 2728.69 1677 2713.5 1677L2327.5 1677C2312.31 1677 2300 1664.69 2300 1649.5Z" fill="#F75459" fill-rule="evenodd" fill-opacity="1"/><path d="M739 1193.5C739 1178.31 751.312 1166 766.5 1166L1152.5 1166C1167.69 1166 1180 1178.31 1180 1193.5L1180 1303.5C1180 1318.69 1167.69 1331 1152.5 1331L766.5 1331C751.312 1331 739 1318.69 739 1303.5Z" fill="#FDBD22" fill-rule="evenodd" fill-opacity="1"/><path d="M1265 1193.5C1265 1178.31 1277.31 1166 1292.5 1166L1678.5 1166C1693.69 1166 1706 1178.31 1706 1193.5L1706 1303.5C1706 1318.69 1693.69 1331 1678.5 1331L1292.5 1331C1277.31 1331 1265 1318.69 1265 1303.5Z" fill="#FDBD22" fill-rule="evenodd" fill-opacity="1"/><rect x="234.5" y="1146.5" width="987" height="215" stroke="#656463" stroke-width="4.58333" stroke-linecap="butt" stroke-linejoin="miter" stroke-miterlimit="8" stroke-opacity="0.780392" fill="none"/><path d="M271 1193.5C271 1178.31 283.312 1166 298.5 1166L684.5 1166C699.688 1166 712 1178.31 712 1193.5L712 1303.5C712 1318.69 699.688 1331 684.5 1331L298.5 1331C283.312 1331 271 1318.69 271 1303.5Z" fill="#FDBD22" fill-rule="evenodd" fill-opacity="0.239216"/><text fill="#000000" fill-opacity="1" font-family="Cambria Math,Cambria Math_MSFontService,sans-serif" font-style="normal" font-variant="normal" font-weight="400" font-stretch="normal" font-size="83" text-anchor="start" direction="ltr" writing-mode="lr-tb" unicode-bidi="normal" text-decoration="none" transform="translate(452.293 1267)">ğ‘<tspan fill="#000000" fill-opacity="1" font-family="Cambria Math,Cambria Math_MSFontService,sans-serif" font-style="normal" font-variant="normal" font-weight="400" font-stretch="normal" font-size="61" text-anchor="start" direction="ltr" writing-mode="lr-tb" unicode-bidi="normal" text-decoration="none" x="43.0833" y="18">7</tspan><tspan fill="#000000" fill-opacity="1" font-family="Cambria Math,Cambria Math_MSFontService,sans-serif" font-style="normal" font-variant="normal" font-weight="400" font-stretch="normal" font-size="61" text-anchor="start" direction="ltr" writing-mode="lr-tb" unicode-bidi="normal" text-decoration="none" x="47.1854" y="-31"> </tspan></text><text fill="#000000" fill-opacity="1" font-family="CMU Serif,CMU Serif_MSFontService,sans-serif" font-style="normal" font-variant="normal" font-weight="700" font-stretch="normal" font-size="83" text-anchor="start" direction="ltr" writing-mode="lr-tb" unicode-bidi="normal" text-decoration="none" transform="matrix(1 0 0 1 2626.62 2272)">Winner</text><text fill="#000000" fill-opacity="1" font-family="Cambria Math,Cambria Math_MSFontService,sans-serif" font-style="normal" font-variant="normal" font-weight="400" font-stretch="normal" font-size="83" text-anchor="start" direction="ltr" writing-mode="lr-tb" unicode-bidi="normal" text-decoration="none" transform="translate(919.202 1267)">ğ‘<tspan fill="#000000" fill-opacity="1" font-family="Cambria Math,Cambria Math_MSFontService,sans-serif" font-style="normal" font-variant="normal" font-weight="400" font-stretch="normal" font-size="61" text-anchor="start" direction="ltr" writing-mode="lr-tb" unicode-bidi="normal" text-decoration="none" x="43.0833" y="19">2</tspan><tspan fill="#000000" fill-opacity="1" font-family="Cambria Math,Cambria Math_MSFontService,sans-serif" font-style="normal" font-variant="normal" font-weight="400" font-stretch="normal" font-size="61" text-anchor="start" direction="ltr" writing-mode="lr-tb" unicode-bidi="normal" text-decoration="none" x="47.1854" y="-31"> </tspan><tspan fill="#000000" fill-opacity="1" font-family="Cambria Math,Cambria Math_MSFontService,sans-serif" font-style="normal" font-variant="normal" font-weight="400" font-stretch="normal" font-size="83" text-anchor="start" direction="ltr" writing-mode="lr-tb" unicode-bidi="normal" text-decoration="none" x="513.099" y="0">ğ‘</tspan><tspan fill="#000000" fill-opacity="1" font-family="Cambria Math,Cambria Math_MSFontService,sans-serif" font-style="normal" font-variant="normal" font-weight="400" font-stretch="normal" font-size="61" text-anchor="start" direction="ltr" writing-mode="lr-tb" unicode-bidi="normal" text-decoration="none" x="556.182" y="19">5</tspan><tspan fill="#000000" fill-opacity="1" font-family="Cambria Math,Cambria Math_MSFontService,sans-serif" font-style="normal" font-variant="normal" font-weight="400" font-stretch="normal" font-size="61" text-anchor="start" direction="ltr" writing-mode="lr-tb" unicode-bidi="normal" text-decoration="none" x="560.284" y="-32"> </tspan></text><path d="M1748 1193.5C1748 1178.31 1760.31 1166 1775.5 1166L2160.5 1166C2175.69 1166 2188 1178.31 2188 1193.5L2188 1303.5C2188 1318.69 2175.69 1331 2160.5 1331L1775.5 1331C1760.31 1331 1748 1318.69 1748 1303.5Z" fill="#FDBD22" fill-rule="evenodd" fill-opacity="0.239216"/><text fill="#000000" fill-opacity="1" font-family="Cambria Math,Cambria Math_MSFontService,sans-serif" font-style="normal" font-variant="normal" font-weight="400" font-stretch="normal" font-size="83" text-anchor="start" direction="ltr" writing-mode="lr-tb" unicode-bidi="normal" text-decoration="none" transform="translate(1928.67 1267)">ğ‘<tspan fill="#000000" fill-opacity="1" font-family="Cambria Math,Cambria Math_MSFontService,sans-serif" font-style="normal" font-variant="normal" font-weight="400" font-stretch="normal" font-size="61" text-anchor="start" direction="ltr" writing-mode="lr-tb" unicode-bidi="normal" text-decoration="none" x="43.0833" y="19">8</tspan><tspan fill="#000000" fill-opacity="1" font-family="Cambria Math,Cambria Math_MSFontService,sans-serif" font-style="normal" font-variant="normal" font-weight="400" font-stretch="normal" font-size="61" text-anchor="start" direction="ltr" writing-mode="lr-tb" unicode-bidi="normal" text-decoration="none" x="47.1854" y="-31"> </tspan></text><rect x="1248.5" y="1146.5" width="988" height="215" stroke="#656463" stroke-width="4.58333" stroke-linecap="butt" stroke-linejoin="miter" stroke-miterlimit="8" stroke-opacity="0.780392" fill="none"/><path d="M2302 1193.5C2302 1178.31 2314.31 1166 2329.5 1166L2715.5 1166C2730.69 1166 2743 1178.31 2743 1193.5L2743 1303.5C2743 1318.69 2730.69 1331 2715.5 1331L2329.5 1331C2314.31 1331 2302 1318.69 2302 1303.5Z" fill="#FDBD22" fill-rule="evenodd" fill-opacity="1"/><path d="M3300 1193.5C3300 1178.31 3312.31 1166 3327.5 1166L3713.5 1166C3728.69 1166 3741 1178.31 3741 1193.5L3741 1303.5C3741 1318.69 3728.69 1331 3713.5 1331L3327.5 1331C3312.31 1331 3300 1318.69 3300 1303.5Z" fill="#FDBD22" fill-rule="evenodd" fill-opacity="1"/><rect x="2269.5" y="1146.5" width="987" height="215" stroke="#656463" stroke-width="4.58333" stroke-linecap="butt" stroke-linejoin="miter" stroke-miterlimit="8" stroke-opacity="0.780392" fill="none"/><path d="M2770 1193.5C2770 1178.31 2782.31 1166 2797.5 1166L3183.5 1166C3198.69 1166 3211 1178.31 3211 1193.5L3211 1303.5C3211 1318.69 3198.69 1331 3183.5 1331L2797.5 1331C2782.31 1331 2770 1318.69 2770 1303.5Z" fill="#FDBD22" fill-rule="evenodd" fill-opacity="0.239216"/><text fill="#000000" fill-opacity="1" font-family="Cambria Math,Cambria Math_MSFontService,sans-serif" font-style="normal" font-variant="normal" font-weight="400" font-stretch="normal" font-size="83" text-anchor="start" direction="ltr" writing-mode="lr-tb" unicode-bidi="normal" text-decoration="none" transform="translate(2488.31 1267)">ğ‘<tspan fill="#000000" fill-opacity="1" font-family="Cambria Math,Cambria Math_MSFontService,sans-serif" font-style="normal" font-variant="normal" font-weight="400" font-stretch="normal" font-size="61" text-anchor="start" direction="ltr" writing-mode="lr-tb" unicode-bidi="normal" text-decoration="none" x="41.1812" y="19">1</tspan><tspan fill="#000000" fill-opacity="1" font-family="Cambria Math,Cambria Math_MSFontService,sans-serif" font-style="normal" font-variant="normal" font-weight="400" font-stretch="normal" font-size="61" text-anchor="start" direction="ltr" writing-mode="lr-tb" unicode-bidi="normal" text-decoration="none" x="47.1855" y="-31"> </tspan><tspan fill="#000000" fill-opacity="1" font-family="Cambria Math,Cambria Math_MSFontService,sans-serif" font-style="normal" font-variant="normal" font-weight="400" font-stretch="normal" font-size="83" text-anchor="start" direction="ltr" writing-mode="lr-tb" unicode-bidi="normal" text-decoration="none" x="483.648" y="0">ğ‘</tspan><tspan fill="#000000" fill-opacity="1" font-family="Cambria Math,Cambria Math_MSFontService,sans-serif" font-style="normal" font-variant="normal" font-weight="400" font-stretch="normal" font-size="61" text-anchor="start" direction="ltr" writing-mode="lr-tb" unicode-bidi="normal" text-decoration="none" x="526.731" y="18">4</tspan><tspan fill="#000000" fill-opacity="1" font-family="Cambria Math,Cambria Math_MSFontService,sans-serif" font-style="normal" font-variant="normal" font-weight="400" font-stretch="normal" font-size="61" text-anchor="start" direction="ltr" writing-mode="lr-tb" unicode-bidi="normal" text-decoration="none" x="530.833" y="-31"> </tspan><tspan fill="#000000" fill-opacity="1" font-family="Cambria Math,Cambria Math_MSFontService,sans-serif" font-style="normal" font-variant="normal" font-weight="400" font-stretch="normal" font-size="83" text-anchor="start" direction="ltr" writing-mode="lr-tb" unicode-bidi="normal" text-decoration="none" x="979.068" y="0">ğ‘</tspan><tspan fill="#000000" fill-opacity="1" font-family="Cambria Math,Cambria Math_MSFontService,sans-serif" font-style="normal" font-variant="normal" font-weight="400" font-stretch="normal" font-size="61" text-anchor="start" direction="ltr" writing-mode="lr-tb" unicode-bidi="normal" text-decoration="none" x="1022.15" y="19">6</tspan><tspan fill="#000000" fill-opacity="1" font-family="Cambria Math,Cambria Math_MSFontService,sans-serif" font-style="normal" font-variant="normal" font-weight="400" font-stretch="normal" font-size="61" text-anchor="start" direction="ltr" writing-mode="lr-tb" unicode-bidi="normal" text-decoration="none" x="1026.25" y="-31"> </tspan></text><path d="M3783 1193.5C3783 1178.31 3795.31 1166 3810.5 1166L4195.5 1166C4210.69 1166 4223 1178.31 4223 1193.5L4223 1303.5C4223 1318.69 4210.69 1331 4195.5 1331L3810.5 1331C3795.31 1331 3783 1318.69 3783 1303.5Z" fill="#FDBD22" fill-rule="evenodd" fill-opacity="0.239216"/><text fill="#000000" fill-opacity="1" font-family="Cambria Math,Cambria Math_MSFontService,sans-serif" font-style="normal" font-variant="normal" font-weight="400" font-stretch="normal" font-size="83" text-anchor="start" direction="ltr" writing-mode="lr-tb" unicode-bidi="normal" text-decoration="none" transform="translate(3963.75 1267)">ğ‘<tspan fill="#000000" fill-opacity="1" font-family="Cambria Math,Cambria Math_MSFontService,sans-serif" font-style="normal" font-variant="normal" font-weight="400" font-stretch="normal" font-size="61" text-anchor="start" direction="ltr" writing-mode="lr-tb" unicode-bidi="normal" text-decoration="none" x="43.0833" y="19">3</tspan><tspan fill="#000000" fill-opacity="1" font-family="Cambria Math,Cambria Math_MSFontService,sans-serif" font-style="normal" font-variant="normal" font-weight="400" font-stretch="normal" font-size="61" text-anchor="start" direction="ltr" writing-mode="lr-tb" unicode-bidi="normal" text-decoration="none" x="47.1853" y="-31"> </tspan></text><rect x="3284.5" y="1146.5" width="987" height="215" stroke="#656463" stroke-width="4.58333" stroke-linecap="butt" stroke-linejoin="miter" stroke-miterlimit="8" stroke-opacity="0.780392" fill="none"/><text fill="#FFFFFF" fill-opacity="1" font-family="Cambria Math,Cambria Math_MSFontService,sans-serif" font-style="normal" font-variant="normal" font-weight="400" font-stretch="normal" font-size="83" text-anchor="start" direction="ltr" writing-mode="lr-tb" unicode-bidi="normal" text-decoration="none" transform="translate(1434.61 1610)">ğ‘<tspan fill="#FFFFFF" fill-opacity="1" font-family="Cambria Math,Cambria Math_MSFontService,sans-serif" font-style="normal" font-variant="normal" font-weight="400" font-stretch="normal" font-size="61" text-anchor="start" direction="ltr" writing-mode="lr-tb" unicode-bidi="normal" text-decoration="none" x="43.0834" y="19">5</tspan><tspan fill="#FFFFFF" fill-opacity="1" font-family="Cambria Math,Cambria Math_MSFontService,sans-serif" font-style="normal" font-variant="normal" font-weight="400" font-stretch="normal" font-size="61" text-anchor="start" direction="ltr" writing-mode="lr-tb" unicode-bidi="normal" text-decoration="none" x="47.1854" y="-32"> </tspan><tspan fill="#000000" fill-opacity="1" font-family="Cambria Math,Cambria Math_MSFontService,sans-serif" font-style="normal" font-variant="normal" font-weight="400" font-stretch="normal" font-size="83" text-anchor="start" direction="ltr" writing-mode="lr-tb" unicode-bidi="normal" text-decoration="none" x="497.313" y="0">ğ‘</tspan><tspan fill="#000000" fill-opacity="1" font-family="Cambria Math,Cambria Math_MSFontService,sans-serif" font-style="normal" font-variant="normal" font-weight="400" font-stretch="normal" font-size="61" text-anchor="start" direction="ltr" writing-mode="lr-tb" unicode-bidi="normal" text-decoration="none" x="538.494" y="18">1</tspan><tspan fill="#000000" fill-opacity="1" font-family="Cambria Math,Cambria Math_MSFontService,sans-serif" font-style="normal" font-variant="normal" font-weight="400" font-stretch="normal" font-size="61" text-anchor="start" direction="ltr" writing-mode="lr-tb" unicode-bidi="normal" text-decoration="none" x="544.499" y="-31"> </tspan></text><rect x="1251.5" y="1487.5" width="987" height="215" stroke="#656463" stroke-width="4.58333" stroke-linecap="butt" stroke-linejoin="miter" stroke-miterlimit="8" stroke-opacity="0.780392" fill="none"/><rect x="2271.5" y="1487.5" width="987" height="215" stroke="#656463" stroke-width="4.58333" stroke-linecap="butt" stroke-linejoin="miter" stroke-miterlimit="8" stroke-opacity="0.780392" fill="none"/><text fill="#FFFFFF" fill-opacity="1" font-family="Cambria Math,Cambria Math_MSFontService,sans-serif" font-style="normal" font-variant="normal" font-weight="400" font-stretch="normal" font-size="83" text-anchor="start" direction="ltr" writing-mode="lr-tb" unicode-bidi="normal" text-decoration="none" transform="translate(2483.08 1610)">ğ‘<tspan fill="#FFFFFF" fill-opacity="1" font-family="Cambria Math,Cambria Math_MSFontService,sans-serif" font-style="normal" font-variant="normal" font-weight="400" font-stretch="normal" font-size="61" text-anchor="start" direction="ltr" writing-mode="lr-tb" unicode-bidi="normal" text-decoration="none" x="43.0833" y="19">6</tspan><tspan fill="#FFFFFF" fill-opacity="1" font-family="Cambria Math,Cambria Math_MSFontService,sans-serif" font-style="normal" font-variant="normal" font-weight="400" font-stretch="normal" font-size="61" text-anchor="start" direction="ltr" writing-mode="lr-tb" unicode-bidi="normal" text-decoration="none" x="47.1853" y="-32"> </tspan><tspan fill="#000000" fill-opacity="1" font-family="Cambria Math,Cambria Math_MSFontService,sans-serif" font-style="normal" font-variant="normal" font-weight="400" font-stretch="normal" font-size="83" text-anchor="start" direction="ltr" writing-mode="lr-tb" unicode-bidi="normal" text-decoration="none" x="502.973" y="0">ğ‘</tspan><tspan fill="#000000" fill-opacity="1" font-family="Cambria Math,Cambria Math_MSFontService,sans-serif" font-style="normal" font-variant="normal" font-weight="400" font-stretch="normal" font-size="61" text-anchor="start" direction="ltr" writing-mode="lr-tb" unicode-bidi="normal" text-decoration="none" x="546.057" y="19">2</tspan><tspan fill="#000000" fill-opacity="1" font-family="Cambria Math,Cambria Math_MSFontService,sans-serif" font-style="normal" font-variant="normal" font-weight="400" font-stretch="normal" font-size="61" text-anchor="start" direction="ltr" writing-mode="lr-tb" unicode-bidi="normal" text-decoration="none" x="550.159" y="-32"> </tspan><tspan fill="#000000" fill-opacity="1" font-family="Cambria Math,Cambria Math_MSFontService,sans-serif" font-style="normal" font-variant="normal" font-weight="400" font-stretch="normal" font-size="83" text-anchor="start" direction="ltr" writing-mode="lr-tb" unicode-bidi="normal" text-decoration="none" x="-531.802" y="332">ğ‘</tspan><tspan fill="#000000" fill-opacity="1" font-family="Cambria Math,Cambria Math_MSFontService,sans-serif" font-style="normal" font-variant="normal" font-weight="400" font-stretch="normal" font-size="61" text-anchor="start" direction="ltr" writing-mode="lr-tb" unicode-bidi="normal" text-decoration="none" x="-488.718" y="351">5</tspan><tspan fill="#000000" fill-opacity="1" font-family="Cambria Math,Cambria Math_MSFontService,sans-serif" font-style="normal" font-variant="normal" font-weight="400" font-stretch="normal" font-size="61" text-anchor="start" direction="ltr" writing-mode="lr-tb" unicode-bidi="normal" text-decoration="none" x="-484.616" y="299"> </tspan><tspan fill="#000000" fill-opacity="1" font-family="Cambria Math,Cambria Math_MSFontService,sans-serif" font-style="normal" font-variant="normal" font-weight="400" font-stretch="normal" font-size="83" text-anchor="start" direction="ltr" writing-mode="lr-tb" unicode-bidi="normal" text-decoration="none" x="-35.4282" y="336">ğ‘</tspan><tspan fill="#000000" fill-opacity="1" font-family="Cambria Math,Cambria Math_MSFontService,sans-serif" font-style="normal" font-variant="normal" font-weight="400" font-stretch="normal" font-size="61" text-anchor="start" direction="ltr" writing-mode="lr-tb" unicode-bidi="normal" text-decoration="none" x="7.65503" y="354">6</tspan><tspan fill="#000000" fill-opacity="1" font-family="Cambria Math,Cambria Math_MSFontService,sans-serif" font-style="normal" font-variant="normal" font-weight="400" font-stretch="normal" font-size="61" text-anchor="start" direction="ltr" writing-mode="lr-tb" unicode-bidi="normal" text-decoration="none" x="11.7573" y="304"> </tspan></text><rect x="1767.5" y="1821.5" width="988" height="214" stroke="#656463" stroke-width="4.58333" stroke-linecap="butt" stroke-linejoin="miter" stroke-miterlimit="8" stroke-opacity="0.780392" fill="none"/><path d="M2053 2188.5C2053 2173.31 2065.31 2161 2080.5 2161L2465.5 2161C2480.69 2161 2493 2173.31 2493 2188.5L2493 2298.5C2493 2313.69 2480.69 2326 2465.5 2326L2080.5 2326C2065.31 2326 2053 2313.69 2053 2298.5Z" fill="#DEEDD3" fill-rule="evenodd" fill-opacity="1"/><text fill="#000000" fill-opacity="1" font-family="Cambria Math,Cambria Math_MSFontService,sans-serif" font-style="normal" font-variant="normal" font-weight="400" font-stretch="normal" font-size="83" text-anchor="start" direction="ltr" writing-mode="lr-tb" unicode-bidi="normal" text-decoration="none" transform="translate(2218.79 2257)">ğ‘<tspan fill="#000000" fill-opacity="1" font-family="Cambria Math,Cambria Math_MSFontService,sans-serif" font-style="normal" font-variant="normal" font-weight="400" font-stretch="normal" font-size="61" text-anchor="start" direction="ltr" writing-mode="lr-tb" unicode-bidi="normal" text-decoration="none" x="43.0833" y="19">5</tspan><tspan fill="#000000" fill-opacity="1" font-family="Cambria Math,Cambria Math_MSFontService,sans-serif" font-style="normal" font-variant="normal" font-weight="400" font-stretch="normal" font-size="61" text-anchor="start" direction="ltr" writing-mode="lr-tb" unicode-bidi="normal" text-decoration="none" x="47.1853" y="-32"> </tspan></text><rect x="2002.5" y="2137.5" width="554" height="214" stroke="#656463" stroke-width="4.58333" stroke-linecap="butt" stroke-linejoin="miter" stroke-miterlimit="8" stroke-opacity="0.780392" fill="none"/><text fill="#000000" fill-opacity="1" font-family="CMU Serif,CMU Serif_MSFontService,sans-serif" font-style="normal" font-variant="normal" font-weight="500" font-stretch="normal" font-size="83" text-anchor="start" direction="ltr" writing-mode="lr-tb" unicode-bidi="normal" text-decoration="none" transform="matrix(1 0 0 1 3427.37 1581)">Select Winners and <tspan fill="#000000" fill-opacity="1" font-family="CMU Serif,CMU Serif_MSFontService,sans-serif" font-style="normal" font-variant="normal" font-weight="500" font-stretch="normal" font-size="83" text-anchor="start" direction="ltr" writing-mode="lr-tb" unicode-bidi="normal" text-decoration="none" x="226.027" y="99">Shuffle</tspan><tspan fill="#000000" fill-opacity="1" font-family="CMU Serif,CMU Serif_MSFontService,sans-serif" font-style="normal" font-variant="normal" font-weight="500" font-stretch="normal" font-size="83" text-anchor="start" direction="ltr" writing-mode="lr-tb" unicode-bidi="normal" text-decoration="none" x="-2917.56" y="31">Compare by </tspan><tspan fill="#000000" fill-opacity="1" font-family="CMU Serif,CMU Serif_MSFontService,sans-serif" font-style="normal" font-variant="normal" font-weight="500" font-stretch="normal" font-size="83" text-anchor="start" direction="ltr" writing-mode="lr-tb" unicode-bidi="normal" text-decoration="none" x="-2924.16" y="130">Probabilistic </tspan><tspan fill="#000000" fill-opacity="1" font-family="CMU Serif,CMU Serif_MSFontService,sans-serif" font-style="normal" font-variant="normal" font-weight="500" font-stretch="normal" font-size="83" text-anchor="start" direction="ltr" writing-mode="lr-tb" unicode-bidi="normal" text-decoration="none" x="-3061.66" y="229">Constrained Pareto</tspan>-<tspan fill="#000000" fill-opacity="1" font-family="CMU Serif,CMU Serif_MSFontService,sans-serif" font-style="normal" font-variant="normal" font-weight="500" font-stretch="normal" font-size="83" text-anchor="start" direction="ltr" writing-mode="lr-tb" unicode-bidi="normal" text-decoration="none" x="-2888.92" y="328">dominance</tspan></text><path d="M5.15625-1.47105e-05 5.15654 100.717-5.15596 100.717-5.15625 1.47105e-05ZM15.469 95.5603 0.000360892 126.498-15.4685 95.5604Z" fill="#000000" fill-rule="nonzero" fill-opacity="1" transform="matrix(1 0 0 -1 727 1487.5)"/><path d="M2262.16 1726 2262.16 1769.53 2251.84 1769.53 2251.84 1726ZM2272.47 1764.37 2257 1795.31 2241.53 1764.37Z" fill="#000000" fill-rule="nonzero" fill-opacity="1"/><path d="M2262.16 2048 2262.16 2091.53 2251.84 2091.53 2251.84 2048ZM2272.47 2086.37 2257 2117.31 2241.53 2086.37Z" fill="#000000" fill-rule="nonzero" fill-opacity="1"/><path d="M2262.16 1391 2262.16 1434.53 2251.84 1434.53 2251.84 1391ZM2272.47 1429.37 2257 1460.31 2241.53 1429.38Z" fill="#000000" fill-rule="nonzero" fill-opacity="1"/><text fill="#000000" fill-opacity="1" font-family="Cambria Math,Cambria Math_MSFontService,sans-serif" font-style="normal" font-variant="normal" font-weight="400" font-stretch="normal" font-size="202" text-anchor="start" direction="ltr" writing-mode="lr-tb" unicode-bidi="normal" text-decoration="none" transform="translate(116.145 331)">ğ›½</text><text fill="#000000" fill-opacity="1" font-family="Calibri Light,Calibri Light_MSFontService,sans-serif" font-style="normal" font-variant="normal" font-weight="300" font-stretch="normal" font-size="202" text-anchor="start" direction="ltr" writing-mode="lr-tb" unicode-bidi="normal" text-decoration="none" transform="matrix(1 0 0 1 244.272 331)">-<tspan fill="#000000" fill-opacity="1" font-family="Calibri Light,Calibri Light_MSFontService,sans-serif" font-style="normal" font-variant="normal" font-weight="300" font-stretch="normal" font-size="202" text-anchor="start" direction="ltr" writing-mode="lr-tb" unicode-bidi="normal" text-decoration="none" x="61.875" y="0">phase</tspan></text><path d="M3660.77 680.432 3623 606" stroke="#000000" stroke-width="2.29167" stroke-linecap="butt" stroke-linejoin="miter" stroke-miterlimit="8" stroke-dasharray="2.29167 2.29167" stroke-opacity="1" fill="none" fill-rule="evenodd"/><path d="M0 0 73.4355 48.0579" stroke="#000000" stroke-width="2.29167" stroke-linecap="butt" stroke-linejoin="miter" stroke-miterlimit="8" stroke-dasharray="2.29167 2.29167" stroke-opacity="1" fill="none" fill-rule="evenodd" transform="matrix(1 0 0 -1 3661 680.058)"/><path d="M3697 716 3768.87 742.751" stroke="#000000" stroke-width="2.29167" stroke-linecap="butt" stroke-linejoin="miter" stroke-miterlimit="8" stroke-dasharray="2.29167 2.29167" stroke-opacity="1" fill="none" fill-rule="evenodd"/><path d="M0 0 223.907 92.4144" stroke="#000000" stroke-width="2.29167" stroke-linecap="butt" stroke-linejoin="miter" stroke-miterlimit="8" stroke-dasharray="2.29167 2.29167" stroke-opacity="1" fill="none" fill-rule="evenodd" transform="matrix(1 0 0 -1 3661 680.415)"/><path d="M0 0 55.114 136.036" stroke="#000000" stroke-width="2.29167" stroke-linecap="butt" stroke-linejoin="miter" stroke-miterlimit="8" stroke-dasharray="2.29167 2.29167" stroke-opacity="1" fill="none" fill-rule="evenodd" transform="matrix(1 0 0 -1 3661 680.036)"/><path d="M3077 508 3146.42 557.752" stroke="#000000" stroke-width="2.29167" stroke-linecap="butt" stroke-linejoin="miter" stroke-miterlimit="8" stroke-dasharray="2.29167 2.29167" stroke-opacity="1" fill="none" fill-rule="evenodd"/><path d="M3146.46 552.323 3023 410" stroke="#000000" stroke-width="2.29167" stroke-linecap="butt" stroke-linejoin="miter" stroke-miterlimit="8" stroke-dasharray="2.29167 2.29167" stroke-opacity="1" fill="none" fill-rule="evenodd"/><path d="M3147.17 552.481 2975 498" stroke="#000000" stroke-width="2.29167" stroke-linecap="butt" stroke-linejoin="miter" stroke-miterlimit="8" stroke-dasharray="2.29167 2.29167" stroke-opacity="1" fill="none" fill-rule="evenodd"/><path d="M3147.16 552.06 2925 357" stroke="#000000" stroke-width="2.29167" stroke-linecap="butt" stroke-linejoin="miter" stroke-miterlimit="8" stroke-dasharray="2.29167 2.29167" stroke-opacity="1" fill="none" fill-rule="evenodd"/><path d="M0 0 37.8035 61.8447" stroke="#000000" stroke-width="2.29167" stroke-linecap="butt" stroke-linejoin="miter" stroke-miterlimit="8" stroke-dasharray="2.29167 2.29167" stroke-opacity="1" fill="none" fill-rule="evenodd" transform="matrix(1 0 0 -1 3221 515.845)"/><rect x="2340.5" y="287.5" width="71.9998" height="73.0002" stroke="#000000" stroke-width="4.58333" stroke-linecap="butt" stroke-linejoin="miter" stroke-miterlimit="8" stroke-opacity="1" fill="#000000" fill-opacity="1"/><path d="M2418 332 2557.53 418.71" stroke="#000000" stroke-width="2.29167" stroke-linecap="butt" stroke-linejoin="miter" stroke-miterlimit="8" stroke-dasharray="2.29167 2.29167" stroke-opacity="1" fill="none" fill-rule="evenodd"/><path d="M3117 383 3183 515" stroke="#000000" stroke-width="2.29167" stroke-linecap="butt" stroke-linejoin="miter" stroke-miterlimit="8" stroke-dasharray="2.29167 2.29167" stroke-opacity="1" fill="none" fill-rule="evenodd"/><path d="M2414 327 2654.59 510.824" stroke="#000000" stroke-width="2.29167" stroke-linecap="butt" stroke-linejoin="miter" stroke-miterlimit="8" stroke-dasharray="2.29167 2.29167" stroke-opacity="1" fill="none" fill-rule="evenodd"/><path d="M2419 329 2657.33 422.958" stroke="#000000" stroke-width="2.29167" stroke-linecap="butt" stroke-linejoin="miter" stroke-miterlimit="8" stroke-dasharray="2.29167 2.29167" stroke-opacity="1" fill="none" fill-rule="evenodd"/><rect x="2053.5" y="119.5" width="2228" height="711" stroke="#656463" stroke-width="4.58333" stroke-linecap="butt" stroke-linejoin="miter" stroke-miterlimit="8" stroke-opacity="1" fill="none"/><text fill="#000000" fill-opacity="1" font-family="Cambria Math,Cambria Math_MSFontService,sans-serif" font-style="normal" font-variant="normal" font-weight="400" font-stretch="normal" font-size="83" text-anchor="start" direction="ltr" writing-mode="lr-tb" unicode-bidi="normal" text-decoration="none" transform="translate(1954.5 494)">ğ‘¥<tspan fill="#000000" fill-opacity="1" font-family="Cambria Math,Cambria Math_MSFontService,sans-serif" font-style="normal" font-variant="normal" font-weight="400" font-stretch="normal" font-size="61" text-anchor="start" direction="ltr" writing-mode="lr-tb" unicode-bidi="normal" text-decoration="none" x="43.3125" y="17">2</tspan></text><rect x="4035.5" y="218.5" width="72.9998" height="72.9999" stroke="#000000" stroke-width="4.58333" stroke-linecap="butt" stroke-linejoin="miter" stroke-miterlimit="8" stroke-opacity="1" fill="#000000" fill-opacity="1"/><rect x="3625.5" y="680.5" width="71.9998" height="72.9999" stroke="#000000" stroke-width="4.58333" stroke-linecap="butt" stroke-linejoin="miter" stroke-miterlimit="8" stroke-opacity="1" fill="#000000" fill-opacity="1"/><rect x="3147.5" y="516.5" width="73.0002" height="72.9999" stroke="#000000" stroke-width="4.58333" stroke-linecap="butt" stroke-linejoin="miter" stroke-miterlimit="8" stroke-opacity="1" fill="#000000" fill-opacity="1"/><path d="M2454.5 368.5C2454.5 349.17 2470.17 333.5 2489.5 333.5 2508.83 333.5 2524.5 349.17 2524.5 368.5 2524.5 387.83 2508.83 403.5 2489.5 403.5 2470.17 403.5 2454.5 387.83 2454.5 368.5Z" stroke="#5CB1FD" stroke-width="4.58333" stroke-linecap="butt" stroke-linejoin="miter" stroke-miterlimit="8" stroke-opacity="1" fill="none" fill-rule="evenodd"/><path d="M3249.5 429.5C3249.5 410.17 3265.17 394.5 3284.5 394.5 3303.83 394.5 3319.5 410.17 3319.5 429.5 3319.5 448.83 3303.83 464.5 3284.5 464.5 3265.17 464.5 3249.5 448.83 3249.5 429.5Z" stroke="#5CB1FD" stroke-width="4.58333" stroke-linecap="butt" stroke-linejoin="miter" stroke-miterlimit="8" stroke-opacity="1" fill="none" fill-rule="evenodd"/><path d="M3833.5 202.5C3833.5 183.17 3849.17 167.5 3868.5 167.5 3887.83 167.5 3903.5 183.17 3903.5 202.5 3903.5 221.83 3887.83 237.5 3868.5 237.5 3849.17 237.5 3833.5 221.83 3833.5 202.5Z" stroke="#000000" stroke-width="4.58333" stroke-linecap="butt" stroke-linejoin="miter" stroke-miterlimit="8" stroke-opacity="1" fill="#5CB1FD" fill-rule="evenodd" fill-opacity="1"/><path d="M3766.5 757C3766.5 737.394 3782.39 721.5 3802 721.5 3821.61 721.5 3837.5 737.394 3837.5 757 3837.5 776.606 3821.61 792.5 3802 792.5 3782.39 792.5 3766.5 776.606 3766.5 757Z" stroke="#5CB1FD" stroke-width="4.58333" stroke-linecap="butt" stroke-linejoin="miter" stroke-miterlimit="8" stroke-opacity="1" fill="none" fill-rule="evenodd"/><path d="M2540.5 453.5 2575 384.5 2609.5 453.5Z" stroke="#C00000" stroke-width="4.58333" stroke-linecap="butt" stroke-linejoin="miter" stroke-miterlimit="8" stroke-opacity="1" fill="none" fill-rule="evenodd"/><path d="M3025.5 542.5 3060 473.5 3094.5 542.5Z" stroke="#C00000" stroke-width="4.58333" stroke-linecap="butt" stroke-linejoin="miter" stroke-miterlimit="8" stroke-opacity="1" fill="none" fill-rule="evenodd"/><path d="M3700.5 632.5 3735 563.5 3769.5 632.5Z" stroke="#C00000" stroke-width="4.58333" stroke-linecap="butt" stroke-linejoin="miter" stroke-miterlimit="8" stroke-opacity="1" fill="none" fill-rule="evenodd"/><path d="M3909.5 357.5 3944 288.5 3978.5 357.5Z" stroke="#C00000" stroke-width="4.58333" stroke-linecap="butt" stroke-linejoin="miter" stroke-miterlimit="8" stroke-opacity="1" fill="none" fill-rule="evenodd"/><path d="M2649.5 506.238 2684 479.5 2718.5 506.238 2705.32 549.5 2662.68 549.5Z" stroke="#4142D1" stroke-width="4.58333" stroke-linecap="butt" stroke-linejoin="miter" stroke-miterlimit="8" stroke-opacity="1" fill="none" fill-rule="evenodd"/><path d="M3761.5 333.238 3796.5 306.5 3831.5 333.238 3818.13 376.5 3774.87 376.5Z" stroke="#4142D1" stroke-width="4.58333" stroke-linecap="butt" stroke-linejoin="miter" stroke-miterlimit="8" stroke-opacity="1" fill="none" fill-rule="evenodd"/><path d="M3880.5 569.238 3915.5 542.5 3950.5 569.238 3937.13 612.5 3893.87 612.5Z" stroke="#4142D1" stroke-width="4.58333" stroke-linecap="butt" stroke-linejoin="miter" stroke-miterlimit="8" stroke-opacity="1" fill="none" fill-rule="evenodd"/><path d="M2649.5 463.5 2666.75 394.5 2702.25 394.5 2719.5 463.5Z" stroke="#000000" stroke-width="4.58333" stroke-linecap="butt" stroke-linejoin="miter" stroke-miterlimit="8" stroke-opacity="1" fill="#DEA623" fill-rule="evenodd" fill-opacity="1"/><path d="M2963.5 445.5 2980.75 376.5 3015.25 376.5 3032.5 445.5Z" stroke="#DEA623" stroke-width="4.58333" stroke-linecap="butt" stroke-linejoin="miter" stroke-miterlimit="8" stroke-opacity="1" fill="none" fill-rule="evenodd"/><path d="M3595.5 606.5 3612.75 537.5 3647.25 537.5 3664.5 606.5Z" stroke="#DEA623" stroke-width="4.58333" stroke-linecap="butt" stroke-linejoin="miter" stroke-miterlimit="8" stroke-opacity="1" fill="none" fill-rule="evenodd"/><path d="M4168.5 331.5 4185.75 261.5 4220.25 261.5 4237.5 331.5Z" stroke="#DEA623" stroke-width="4.58333" stroke-linecap="butt" stroke-linejoin="miter" stroke-miterlimit="8" stroke-opacity="1" fill="none" fill-rule="evenodd"/><path d="M2856.5 340.75 2873.75 340.75 2873.75 323.5 2908.25 323.5 2908.25 340.75 2925.5 340.75 2925.5 375.25 2908.25 375.25 2908.25 392.5 2873.75 392.5 2873.75 375.25 2856.5 375.25Z" stroke="#64DE7D" stroke-width="4.58333" stroke-linecap="butt" stroke-linejoin="miter" stroke-miterlimit="8" stroke-opacity="1" fill="none" fill-rule="evenodd"/><path d="M2906.5 480.75 2923.75 480.75 2923.75 463.5 2958.25 463.5 2958.25 480.75 2975.5 480.75 2975.5 515.25 2958.25 515.25 2958.25 532.5 2923.75 532.5 2923.75 515.25 2906.5 515.25Z" stroke="#000000" stroke-width="4.58333" stroke-linecap="butt" stroke-linejoin="miter" stroke-miterlimit="8" stroke-opacity="1" fill="#64DE7D" fill-rule="evenodd" fill-opacity="1"/><path d="M3697.5 494.75 3714.75 494.75 3714.75 477.5 3749.25 477.5 3749.25 494.75 3766.5 494.75 3766.5 529.25 3749.25 529.25 3749.25 546.5 3714.75 546.5 3714.75 529.25 3697.5 529.25Z" stroke="#000000" stroke-width="4.58333" stroke-linecap="butt" stroke-linejoin="miter" stroke-miterlimit="8" stroke-opacity="1" fill="#64DE7D" fill-rule="evenodd" fill-opacity="1"/><path d="M3990.5 394.5 4007.5 394.5 4007.5 377.5 4042.5 377.5 4042.5 394.5 4059.5 394.5 4059.5 428.5 4042.5 428.5 4042.5 445.5 4007.5 445.5 4007.5 428.5 3990.5 428.5Z" stroke="#64DE7D" stroke-width="4.58333" stroke-linecap="butt" stroke-linejoin="miter" stroke-miterlimit="8" stroke-opacity="1" fill="none" fill-rule="evenodd"/><path d="M3478.5 629.5C3478.5 526.775 3592.44 443.5 3733 443.5 3873.56 443.5 3987.5 526.775 3987.5 629.5 3987.5 732.225 3873.56 815.5 3733 815.5 3592.44 815.5 3478.5 732.225 3478.5 629.5Z" stroke="#000000" stroke-width="4.58333" stroke-linecap="butt" stroke-linejoin="miter" stroke-miterlimit="8" stroke-opacity="1" fill="none" fill-rule="evenodd"/><path d="M2802.24 367.016C2844.23 249.772 3006.19 200.533 3163.99 257.038 3321.8 313.543 3415.7 454.395 3373.71 571.639 3331.73 688.882 3169.77 738.121 3011.97 681.616 2854.16 625.111 2760.26 484.259 2802.24 367.016Z" stroke="#000000" stroke-width="4.58333" stroke-linecap="butt" stroke-linejoin="miter" stroke-miterlimit="8" stroke-opacity="1" fill="none" fill-rule="evenodd"/><path d="M3705.5 296.5C3705.5 198.746 3827.73 119.5 3978.5 119.5 4129.27 119.5 4251.5 198.746 4251.5 296.5 4251.5 394.254 4129.27 473.5 3978.5 473.5 3827.73 473.5 3705.5 394.254 3705.5 296.5Z" stroke="#000000" stroke-width="4.58333" stroke-linecap="butt" stroke-linejoin="miter" stroke-miterlimit="8" stroke-opacity="1" fill="none" fill-rule="evenodd"/><path d="M2412 324 2460.74 350.168" stroke="#000000" stroke-width="2.29167" stroke-linecap="butt" stroke-linejoin="miter" stroke-miterlimit="8" stroke-dasharray="2.29167 2.29167" stroke-opacity="1" fill="none" fill-rule="evenodd"/><path d="M3903 202 4034.5 254.56" stroke="#000000" stroke-width="2.29167" stroke-linecap="butt" stroke-linejoin="miter" stroke-miterlimit="8" stroke-dasharray="2.29167 2.29167" stroke-opacity="1" fill="none" fill-rule="evenodd"/><path d="M0 0 73.9259 68.1957" stroke="#000000" stroke-width="2.29167" stroke-linecap="butt" stroke-linejoin="miter" stroke-miterlimit="8" stroke-dasharray="2.29167 2.29167" stroke-opacity="1" fill="none" fill-rule="evenodd" transform="matrix(1 0 0 -1 3961 322.196)"/><path d="M0 0 204.097 78.5287" stroke="#000000" stroke-width="2.29167" stroke-linecap="butt" stroke-linejoin="miter" stroke-miterlimit="8" stroke-dasharray="2.29167 2.29167" stroke-opacity="1" fill="none" fill-rule="evenodd" transform="matrix(1 0 0 -1 3831 332.529)"/><path d="M0 0 46.9795 85.9812" stroke="#000000" stroke-width="2.29167" stroke-linecap="butt" stroke-linejoin="miter" stroke-miterlimit="8" stroke-dasharray="2.29167 2.29167" stroke-opacity="1" fill="none" fill-rule="evenodd" transform="matrix(1 0 0 -1 4024 376.981)"/><path d="M4177.17 295.728 4108 254" stroke="#000000" stroke-width="2.29167" stroke-linecap="butt" stroke-linejoin="miter" stroke-miterlimit="8" stroke-dasharray="2.29167 2.29167" stroke-opacity="1" fill="none" fill-rule="evenodd"/><text fill="#000000" fill-opacity="1" font-family="Cambria Math,Cambria Math_MSFontService,sans-serif" font-style="normal" font-variant="normal" font-weight="400" font-stretch="normal" font-size="83" text-anchor="start" direction="ltr" writing-mode="lr-tb" unicode-bidi="normal" text-decoration="none" transform="translate(2335.65 254)">ğ‘‹<tspan fill="#000000" fill-opacity="1" font-family="Cambria Math,Cambria Math_MSFontService,sans-serif" font-style="normal" font-variant="normal" font-weight="400" font-stretch="normal" font-size="61" text-anchor="start" direction="ltr" writing-mode="lr-tb" unicode-bidi="normal" text-decoration="none" x="47.7585" y="17">1</tspan><tspan fill="#000000" fill-opacity="1" font-family="Cambria Math,Cambria Math_MSFontService,sans-serif" font-style="normal" font-variant="normal" font-weight="400" font-stretch="normal" font-size="83" text-anchor="start" direction="ltr" writing-mode="lr-tb" unicode-bidi="normal" text-decoration="none" x="1636.66" y="-64">ğ‘‹</tspan><tspan fill="#000000" fill-opacity="1" font-family="Cambria Math,Cambria Math_MSFontService,sans-serif" font-style="normal" font-variant="normal" font-weight="400" font-stretch="normal" font-size="61" text-anchor="start" direction="ltr" writing-mode="lr-tb" unicode-bidi="normal" text-decoration="none" x="1686.32" y="-48">2</tspan><tspan fill="#000000" fill-opacity="1" font-family="Cambria Math,Cambria Math_MSFontService,sans-serif" font-style="normal" font-variant="normal" font-weight="400" font-stretch="normal" font-size="83" text-anchor="start" direction="ltr" writing-mode="lr-tb" unicode-bidi="normal" text-decoration="none" x="1187.23" y="456">ğ‘‹</tspan><tspan fill="#000000" fill-opacity="1" font-family="Cambria Math,Cambria Math_MSFontService,sans-serif" font-style="normal" font-variant="normal" font-weight="400" font-stretch="normal" font-size="61" text-anchor="start" direction="ltr" writing-mode="lr-tb" unicode-bidi="normal" text-decoration="none" x="1236.89" y="473">3</tspan><tspan fill="#000000" fill-opacity="1" font-family="Cambria Math,Cambria Math_MSFontService,sans-serif" font-style="normal" font-variant="normal" font-weight="400" font-stretch="normal" font-size="83" text-anchor="start" direction="ltr" writing-mode="lr-tb" unicode-bidi="normal" text-decoration="none" x="916.732" y="323">ğ‘‹</tspan><tspan fill="#000000" fill-opacity="1" font-family="Cambria Math,Cambria Math_MSFontService,sans-serif" font-style="normal" font-variant="normal" font-weight="400" font-stretch="normal" font-size="61" text-anchor="start" direction="ltr" writing-mode="lr-tb" unicode-bidi="normal" text-decoration="none" x="966.392" y="340">4</tspan></text><path d="M3077.5 335.856 3112 309.5 3146.5 335.856 3133.32 378.5 3090.68 378.5Z" stroke="#4142D1" stroke-width="4.58333" stroke-linecap="butt" stroke-linejoin="miter" stroke-miterlimit="8" stroke-opacity="1" fill="none" fill-rule="evenodd"/><text fill="#000000" fill-opacity="1" font-family="Cambria Math,Cambria Math_MSFontService,sans-serif" font-style="normal" font-variant="normal" font-weight="400" font-stretch="normal" font-size="83" text-anchor="start" direction="ltr" writing-mode="lr-tb" unicode-bidi="normal" text-decoration="none" transform="translate(2063.26 912)">ğ›½</text><text fill="#000000" fill-opacity="1" font-family="Calibri,Calibri_MSFontService,sans-serif" font-style="normal" font-variant="normal" font-weight="400" font-stretch="normal" font-size="83" text-anchor="start" direction="ltr" writing-mode="lr-tb" unicode-bidi="normal" text-decoration="none" transform="matrix(1 0 0 1 2115.6 912)">-<tspan fill="#000000" fill-opacity="1" font-family="Calibri,Calibri_MSFontService,sans-serif" font-style="normal" font-variant="normal" font-weight="400" font-stretch="normal" font-size="83" text-anchor="start" direction="ltr" writing-mode="lr-tb" unicode-bidi="normal" text-decoration="none" x="25.2085" y="0">phase</tspan></text><path d="M2283.33 196.628C2339.71 123.176 2490.22 144.077 2619.5 243.312 2748.79 342.547 2807.89 482.537 2751.51 555.99 2695.13 629.442 2544.62 608.541 2415.34 509.306 2286.05 410.071 2226.95 270.081 2283.33 196.628Z" stroke="#000000" stroke-width="4.58333" stroke-linecap="butt" stroke-linejoin="miter" stroke-miterlimit="8" stroke-opacity="1" fill="none" fill-rule="evenodd"/><path d="M4.95799-9.04246 205.151 100.724 195.235 118.809-4.95799 9.04246ZM206.025 77.6809 245.406 134.556 176.277 131.936Z" fill="#FF0000" fill-rule="nonzero" fill-opacity="1" transform="matrix(1 0 0 -1 2391.5 611.056)"/><text fill="#FF0000" fill-opacity="1" font-family="Calibri,Calibri_MSFontService,sans-serif" font-style="normal" font-variant="normal" font-weight="700" font-stretch="normal" font-size="128" text-anchor="start" direction="ltr" writing-mode="lr-tb" unicode-bidi="normal" text-decoration="none" transform="matrix(1 0 0 1 2166.48 762)">How?<tspan fill="#000000" fill-opacity="1" font-family="Calibri,Calibri_MSFontService,sans-serif" font-style="normal" font-variant="normal" font-weight="400" font-stretch="normal" font-size="83" text-anchor="start" direction="ltr" writing-mode="lr-tb" unicode-bidi="normal" text-decoration="none" x="1264.64" y="1191">Break Tie if necessary</tspan></text></g></svg>