<svg width="1563" height="1425" xmlns="http://www.w3.org/2000/svg" xmlns:xlink="http://www.w3.org/1999/xlink" overflow="hidden"><defs><clipPath id="clip0"><rect x="13" y="41" width="1563" height="1425"/></clipPath></defs><g clip-path="url(#clip0)" transform="translate(-13 -41)"><rect x="592.5" y="46.4999" width="956" height="324" stroke="#767171" stroke-width="4.58333" stroke-linecap="butt" stroke-linejoin="miter" stroke-miterlimit="8" stroke-opacity="1" fill="#D9D9D9" fill-opacity="0.329412"/><path d="M3.4375-1.03077e-06 3.43785 1180.61-3.43715 1180.61-3.4375 1.03077e-06ZM13.7504 1176.03 0.000360892 1203.53-13.7496 1176.03Z" fill="#000000" fill-rule="nonzero" fill-opacity="1" transform="matrix(1 0 0 -1 67.4999 1404.03)"/><path d="M67.4999 1401.06 1427.67 1401.06 1427.67 1407.94 67.4999 1407.94ZM1423.09 1390.75 1450.59 1404.5 1423.09 1418.25Z" fill="#000000" fill-rule="nonzero" fill-opacity="1"/><text fill="#000000" fill-opacity="1" font-family="Cambria Math,Cambria Math_MSFontService,sans-serif" font-style="normal" font-variant="normal" font-weight="400" font-stretch="normal" font-size="83" text-anchor="start" direction="ltr" writing-mode="lr-tb" unicode-bidi="normal" text-decoration="none" transform="translate(1490.86 1409)">ğ‘“<tspan fill="#000000" fill-opacity="1" font-family="Cambria Math,Cambria Math_MSFontService,sans-serif" font-style="normal" font-variant="normal" font-weight="400" font-stretch="normal" font-size="61" text-anchor="start" direction="ltr" writing-mode="lr-tb" unicode-bidi="normal" text-decoration="none" x="30.4791" y="17">1</tspan><tspan fill="#000000" fill-opacity="1" font-family="Cambria Math,Cambria Math_MSFontService,sans-serif" font-style="normal" font-variant="normal" font-weight="400" font-stretch="normal" font-size="83" text-anchor="start" direction="ltr" writing-mode="lr-tb" unicode-bidi="normal" text-decoration="none" x="-1438.77" y="-1255">ğ‘“</tspan><tspan fill="#000000" fill-opacity="1" font-family="Cambria Math,Cambria Math_MSFontService,sans-serif" font-style="normal" font-variant="normal" font-weight="400" font-stretch="normal" font-size="61" text-anchor="start" direction="ltr" writing-mode="lr-tb" unicode-bidi="normal" text-decoration="none" x="-1406.39" y="-1238">2</tspan></text><path d="M219 300.5C219 280.894 234.894 265 254.5 265 274.106 265 290 280.894 290 300.5 290 320.106 274.106 336 254.5 336 234.894 336 219 320.106 219 300.5Z" fill="#00B050" fill-rule="evenodd" fill-opacity="1"/><path d="M410 401.5C410 381.894 425.894 366 445.5 366 465.106 366 481 381.894 481 401.5 481 421.106 465.106 437 445.5 437 425.894 437 410 421.106 410 401.5Z" fill="#00B050" fill-rule="evenodd" fill-opacity="1"/><path d="M728 651.5C728 631.894 743.894 616 763.5 616 783.106 616 799 631.894 799 651.5 799 671.106 783.106 687 763.5 687 743.894 687 728 671.106 728 651.5Z" fill="#00B050" fill-rule="evenodd" fill-opacity="1"/><path d="M959 833.5C959 813.894 974.67 798 994 798 1013.33 798 1029 813.894 1029 833.5 1029 853.106 1013.33 869 994 869 974.67 869 959 853.106 959 833.5Z" fill="#00B050" fill-rule="evenodd" fill-opacity="1"/><path d="M1301 1014.5C1301 994.894 1316.89 979 1336.5 979 1356.11 979 1372 994.894 1372 1014.5 1372 1034.11 1356.11 1050 1336.5 1050 1316.89 1050 1301 1034.11 1301 1014.5Z" fill="#00B050" fill-rule="evenodd" fill-opacity="1"/><path d="M122.5 508.5 171 437.5 219.5 508.5Z" stroke="#0070C0" stroke-width="4.58333" stroke-linecap="butt" stroke-linejoin="miter" stroke-miterlimit="8" stroke-opacity="1" fill="none" fill-rule="evenodd"/><path d="M229 563 277.5 492 326 563Z" fill="#0070C0" fill-rule="evenodd" fill-opacity="1"/><path d="M470.5 728.5 519.5 657.5 568.5 728.5Z" stroke="#0070C0" stroke-width="4.58333" stroke-linecap="butt" stroke-linejoin="miter" stroke-miterlimit="8" stroke-opacity="1" fill="none" fill-rule="evenodd"/><path d="M568.5 802.5 617 731.5 665.5 802.5Z" stroke="#0070C0" stroke-width="4.58333" stroke-linecap="butt" stroke-linejoin="miter" stroke-miterlimit="8" stroke-opacity="1" fill="none" fill-rule="evenodd"/><path d="M639 873 687.5 802 736 873Z" fill="#0070C0" fill-rule="evenodd" fill-opacity="1"/><path d="M713.5 944.5 762 873.5 810.5 944.5Z" stroke="#0070C0" stroke-width="4.58333" stroke-linecap="butt" stroke-linejoin="miter" stroke-miterlimit="8" stroke-opacity="1" fill="none" fill-rule="evenodd"/><path d="M1107.5 1101.5 1156 1030.5 1204.5 1101.5Z" stroke="#0070C0" stroke-width="4.58333" stroke-linecap="butt" stroke-linejoin="miter" stroke-miterlimit="8" stroke-opacity="1" fill="none" fill-rule="evenodd"/><path d="M1180.5 1180.5 1229 1109.5 1277.5 1180.5Z" stroke="#0070C0" stroke-width="4.58333" stroke-linecap="butt" stroke-linejoin="miter" stroke-miterlimit="8" stroke-opacity="1" fill="none" fill-rule="evenodd"/><path d="M1288 1239 1336.5 1168 1385 1239Z" fill="#0070C0" fill-rule="evenodd" fill-opacity="1"/><path d="M1372.5 1310.5 1421 1239.5 1469.5 1310.5Z" stroke="#0070C0" stroke-width="4.58333" stroke-linecap="butt" stroke-linejoin="miter" stroke-miterlimit="8" stroke-opacity="1" fill="none" fill-rule="evenodd"/><path d="M99.448 428.733C138.852 374.865 228.956 373.74 300.7 426.221 372.445 478.701 398.662 564.914 359.258 618.782 319.854 672.65 229.75 673.775 158.005 621.294 86.261 568.814 60.0439 482.601 99.448 428.733Z" stroke="#FF0000" stroke-width="6.875" stroke-linecap="butt" stroke-linejoin="miter" stroke-miterlimit="8" stroke-opacity="1" fill="none" fill-rule="evenodd"/><path d="M468.204 678.325C516.494 615.597 639.845 629.57 743.715 709.534 847.586 789.498 892.643 905.173 844.353 967.9 796.063 1030.63 672.712 1016.65 568.842 936.69 464.971 856.726 419.914 741.052 468.204 678.325Z" stroke="#FF0000" stroke-width="6.875" stroke-linecap="butt" stroke-linejoin="miter" stroke-miterlimit="8" stroke-opacity="1" fill="none" fill-rule="evenodd"/><path d="M1044.88 1040.29C1080.31 980.635 1213.17 994.126 1341.63 1070.42 1470.09 1146.72 1545.51 1256.93 1510.08 1316.59 1474.65 1376.24 1341.78 1362.75 1213.32 1286.45 1084.86 1210.16 1009.45 1099.94 1044.88 1040.29Z" stroke="#FF0000" stroke-width="6.875" stroke-linecap="butt" stroke-linejoin="miter" stroke-miterlimit="8" stroke-opacity="1" fill="none" fill-rule="evenodd"/><path d="M641 145.5C641 125.894 656.894 110 676.5 110 696.106 110 712 125.894 712 145.5 712 165.106 696.106 181 676.5 181 656.894 181 641 165.106 641 145.5Z" fill="#00B050" fill-rule="evenodd" fill-opacity="1"/><path d="M630.5 299.5 679.5 228.5 728.5 299.5Z" stroke="#0070C0" stroke-width="4.58333" stroke-linecap="butt" stroke-linejoin="miter" stroke-miterlimit="8" stroke-opacity="1" fill="none" fill-rule="evenodd"/><text fill="#000000" fill-opacity="1" font-family="CMU Serif,CMU Serif_MSFontService,sans-serif" font-style="normal" font-variant="normal" font-weight="500" font-stretch="normal" font-size="64" text-anchor="start" direction="ltr" writing-mode="lr-tb" unicode-bidi="normal" text-decoration="none" transform="matrix(1 0 0 1 771.795 166)">Population  (high<tspan fill="#000000" fill-opacity="1" font-family="CMU Serif,CMU Serif_MSFontService,sans-serif" font-style="normal" font-variant="normal" font-weight="500" font-stretch="normal" font-size="64" text-anchor="start" direction="ltr" writing-mode="lr-tb" unicode-bidi="normal" text-decoration="none" x="494.427" y="0">-</tspan><tspan fill="#000000" fill-opacity="1" font-family="CMU Serif,CMU Serif_MSFontService,sans-serif" font-style="normal" font-variant="normal" font-weight="500" font-stretch="normal" font-size="64" text-anchor="start" direction="ltr" writing-mode="lr-tb" unicode-bidi="normal" text-decoration="none" x="515.625" y="0">fidelity)</tspan><tspan fill="#000000" fill-opacity="1" font-family="CMU Serif,CMU Serif_MSFontService,sans-serif" font-style="normal" font-variant="normal" font-weight="500" font-stretch="normal" font-size="64" text-anchor="start" direction="ltr" writing-mode="lr-tb" unicode-bidi="normal" text-decoration="none" x="4.02502" y="122">Candidates  (surrogate)</tspan></text><path d="M1.14563-0.0213213 11.1313 536.528 8.84002 536.571-1.14563 0.0213213ZM23.648 531.713 10.4121 559.464-3.84722 532.224Z" fill="#000000" fill-rule="nonzero" fill-opacity="1" transform="matrix(1 0 0 -1 261 1148.46)"/><path d="M1.05135-0.455636 93.3451 212.505 91.2424 213.417-1.05135 0.455636ZM103.087 203.288 101.406 233.988 77.855 214.223Z" fill="#000000" fill-rule="nonzero" fill-opacity="1" transform="matrix(1 0 0 -1 563 1139.99)"/><path d="M713 1220.85 1212.32 1220.85 1212.32 1223.15 713 1223.15ZM1207.74 1208.25 1235.24 1222 1207.74 1235.75Z" fill="#000000" fill-rule="nonzero" fill-opacity="1"/><text fill="#000000" fill-opacity="1" font-family="CMU Serif,CMU Serif_MSFontService,sans-serif" font-style="normal" font-variant="normal" font-weight="500" font-stretch="normal" font-size="64" text-anchor="start" direction="ltr" writing-mode="lr-tb" unicode-bidi="normal" text-decoration="none" transform="matrix(1 0 0 1 130.725 1241)">Ranking Selection<tspan fill="#000000" fill-opacity="1" font-family="CMU Serif,CMU Serif_MSFontService,sans-serif" font-style="normal" font-variant="normal" font-weight="500" font-stretch="normal" font-size="64" text-anchor="start" direction="ltr" writing-mode="lr-tb" unicode-bidi="normal" text-decoration="none" x="0" y="77">(based on Crowding Distance)</tspan></text></g></svg>